<svg width="18" height="18" viewBox="0 0 18 18" fill="none" xmlns="http://www.w3.org/2000/svg">
<path d="M16.3129 18H1.68712C1.24016 17.9985 0.81195 17.8245 0.495895 17.5161C0.17984 17.2076 0.0015822 16.7897 0 16.3535L0 3.30322C0.0015822 2.86702 0.17984 2.44913 0.495895 2.14069C0.81195 1.83225 1.24016 1.65828 1.68712 1.65674H3.24366V3.68262C3.24505 3.95351 3.30876 4.22063 3.43008 4.46428C3.5514 4.70793 3.72725 4.92188 3.94463 5.09033C4.33345 5.39752 4.81854 5.56512 5.3188 5.56512C5.81905 5.56512 6.30414 5.39752 6.69296 5.09033C6.91034 4.92188 7.08619 4.70793 7.20751 4.46428C7.32883 4.22063 7.39254 3.95351 7.39393 3.68262V1.65674H10.537V3.68262C10.5384 3.95351 10.6021 4.22063 10.7234 4.46428C10.8448 4.70793 11.0206 4.92188 11.238 5.09033C11.6268 5.39752 12.1119 5.56512 12.6122 5.56512C13.1124 5.56512 13.5975 5.39752 13.9863 5.09033C14.2037 4.92188 14.3795 4.70793 14.5009 4.46428C14.6222 4.22063 14.6859 3.95351 14.6873 3.68262V1.65674H16.3129C16.7596 1.65905 17.1874 1.83326 17.5032 2.14153C17.8191 2.44981 17.9976 2.86726 18 3.30322V16.3535C17.9988 16.7898 17.8207 17.208 17.5045 17.5165C17.1884 17.825 16.76 17.9988 16.3129 18ZM12.5454 8.31592H14.962C15.0423 8.31625 15.1194 8.34696 15.1771 8.40158C15.2347 8.45621 15.2685 8.53051 15.2712 8.60889V10.5718C15.2685 10.6502 15.2347 10.7245 15.1771 10.7791C15.1194 10.8337 15.0423 10.8644 14.962 10.8647H12.5454C12.4665 10.8625 12.3914 10.831 12.3356 10.7765C12.2798 10.722 12.2474 10.6488 12.2452 10.5718V8.61621C12.2471 8.5391 12.2793 8.46565 12.3352 8.41111C12.3911 8.35656 12.4663 8.3251 12.5454 8.32324V8.31592ZM7.81571 8.31592H10.2338C10.3127 8.31813 10.3878 8.34971 10.4436 8.40418C10.4994 8.45865 10.5318 8.53189 10.534 8.60889V10.5718C10.5314 10.6487 10.4989 10.7217 10.4432 10.7761C10.3875 10.8305 10.3126 10.8622 10.2338 10.8647H7.81571C7.73681 10.8625 7.66176 10.831 7.60595 10.7765C7.55013 10.722 7.51778 10.6488 7.51551 10.5718V8.61621C7.51778 8.53921 7.55013 8.46597 7.60595 8.4115C7.66176 8.35703 7.73681 8.32545 7.81571 8.32324V8.31592ZM3.03652 8.31592H5.45464C5.53354 8.31813 5.60858 8.34971 5.6644 8.40418C5.72021 8.45865 5.75257 8.53189 5.75484 8.60889V10.5718C5.75221 10.6487 5.71974 10.7217 5.664 10.7761C5.60826 10.8305 5.53342 10.8622 5.45464 10.8647H3.03652C2.95631 10.8644 2.87938 10.8336 2.82197 10.779C2.76455 10.7243 2.73115 10.65 2.72882 10.5718V8.61621C2.73078 8.53784 2.76406 8.46333 2.82156 8.40859C2.87905 8.35385 2.9562 8.32322 3.03652 8.32324V8.31592ZM12.5454 12.4893H14.962C15.0423 12.4896 15.1194 12.5203 15.1771 12.5749C15.2347 12.6295 15.2685 12.7039 15.2712 12.7822V14.7451C15.2708 14.8249 15.238 14.9013 15.1801 14.9575C15.1221 15.0138 15.0437 15.0454 14.962 15.0454H12.5454C12.4652 15.0431 12.3891 15.0105 12.333 14.9545C12.277 14.8985 12.2455 14.8234 12.2452 14.7451V12.7896C12.2474 12.7126 12.2798 12.6393 12.3356 12.5848C12.3914 12.5304 12.4665 12.4988 12.5454 12.4966V12.4893ZM7.81571 12.4893H10.2338C10.3127 12.4915 10.3878 12.523 10.4436 12.5775C10.4994 12.632 10.5318 12.7052 10.534 12.7822V14.7451C10.5337 14.8234 10.5022 14.8985 10.4461 14.9545C10.3901 15.0105 10.314 15.0431 10.2338 15.0454H7.81571C7.73553 15.0431 7.6594 15.0105 7.60339 14.9545C7.54738 14.8985 7.51587 14.8234 7.51551 14.7451V12.7896C7.51813 12.7127 7.5506 12.6396 7.60634 12.5852C7.66208 12.5308 7.73693 12.4991 7.81571 12.4966V12.4893ZM3.03652 12.4893H5.45464C5.53354 12.4915 5.60858 12.523 5.6644 12.5775C5.72021 12.632 5.75257 12.7052 5.75484 12.7822V14.7451C5.75448 14.8234 5.72297 14.8985 5.66696 14.9545C5.61094 15.0105 5.53481 15.0431 5.45464 15.0454H3.03652C2.95504 15.045 2.877 15.0133 2.81938 14.957C2.76176 14.9008 2.72921 14.8246 2.72882 14.7451V12.7896C2.73115 12.7113 2.76455 12.637 2.82197 12.5823C2.87938 12.5277 2.95631 12.4969 3.03652 12.4966V12.4893ZM11.7979 0.651855C11.7979 0.292969 12.1581 0 12.6084 0C13.0587 0 13.4234 0.292969 13.4234 0.651855V3.68262C13.4234 4.04297 13.0602 4.33447 12.6084 4.33447C12.1566 4.33447 11.7949 4.0415 11.7949 3.68262V0.651855H11.7979ZM4.503 0.651855C4.503 0.292969 4.86925 0 5.31955 0C5.76985 0 6.13309 0.292969 6.13309 0.651855V3.68262C6.13309 4.04297 5.76985 4.33447 5.31955 4.33447C4.86925 4.33447 4.503 4.04297 4.503 3.68262V0.651855ZM0.54036 6.4248V16.1777C0.541547 16.5208 0.681725 16.8495 0.930307 17.0921C1.17889 17.3347 1.5157 17.4715 1.86724 17.4727H16.1268C16.4786 17.4719 16.8158 17.3353 17.0647 17.0926C17.3136 16.85 17.4539 16.5211 17.4551 16.1777V6.4248H0.54036Z" fill="#097706"/>
</svg>
