<svg width="20" height="17" viewBox="0 0 20 17" fill="none" xmlns="http://www.w3.org/2000/svg">
<g clip-path="url(#clip0_12_87)">
<path d="M10.2682 -2.6389e-06H10.2795C12.9993 0.0861645 15.4423 1.01834 17.192 2.46125C18.9823 3.94332 20.0647 5.96277 19.9963 8.17021C19.9507 9.46972 19.5179 10.7292 18.7496 11.7986C17.9288 12.9351 16.8365 13.8652 15.5644 14.5105C14.137 15.2623 12.5641 15.7231 10.9436 15.8642C9.4847 15.9875 8.01535 15.8047 6.63697 15.3284L0.863857 17L2.52076 12.9799C1.8733 12.4273 1.32358 11.777 0.893154 11.0545C0.188664 9.88176 -0.110558 8.52395 0.038662 7.17694C0.201633 5.84546 0.752321 4.58545 1.6272 3.54225C2.35989 2.66279 3.26244 1.9281 4.28508 1.37867C5.17894 0.896479 6.13888 0.537845 7.13664 0.313333C8.16065 0.0775255 9.21239 -0.0278202 10.2649 -2.6389e-06H10.2682ZM7.16106 5.51313H8.48104C8.72567 5.51354 8.96015 5.60727 9.13312 5.77377C9.3061 5.94027 9.40347 6.16597 9.4039 6.40143C9.4039 8.22975 9.89218 10.2382 7.56145 10.8116C6.50676 11.0717 6.2317 9.95309 7.35311 9.87162C8.03671 9.82462 8.16692 9.40162 8.19296 8.75615H7.12688C6.88225 8.75573 6.64777 8.66201 6.4748 8.49551C6.30182 8.32901 6.20446 8.10331 6.20403 7.86784V6.42337C6.20618 6.1807 6.30806 5.94872 6.4874 5.77815C6.66674 5.60757 6.90894 5.51229 7.16106 5.51313ZM11.5182 5.51313H12.8365C13.0813 5.51354 13.3159 5.60721 13.4892 5.77367C13.6624 5.94012 13.7601 6.16582 13.761 6.40143C13.761 8.22975 14.2493 10.2382 11.9169 10.8116C10.8622 11.0717 10.5872 9.95309 11.7102 9.87162C12.3938 9.82462 12.524 9.40162 12.5484 8.75615H11.4905C11.2459 8.75573 11.0114 8.66201 10.8384 8.49551C10.6654 8.32901 10.5681 8.10331 10.5676 7.86784V6.42337C10.5681 6.18084 10.6683 5.94836 10.8465 5.77687C11.0247 5.60537 11.2662 5.50884 11.5182 5.50843V5.51313ZM10.2307 1.47267H10.221C9.30129 1.44526 8.38189 1.53481 7.48658 1.73901C6.63182 1.93553 5.80998 2.24669 5.04517 2.66335C4.1942 3.11716 3.44165 3.724 2.82838 4.45092C2.12999 5.27678 1.68922 6.27634 1.55722 7.33361C1.43887 8.37329 1.66686 9.42227 2.20826 10.3291C2.64478 11.0468 3.2212 11.6767 3.90585 12.184L4.35019 12.5224L3.44687 14.7158L6.70207 13.7758L6.94621 13.8682C8.17753 14.3286 9.50247 14.5098 10.8183 14.3977C12.2293 14.2734 13.5988 13.8713 14.8417 13.2165C15.8968 12.6856 16.8044 11.9189 17.4882 10.9808C18.0901 10.1415 18.4291 9.15348 18.4648 8.13418C18.5168 6.3936 17.651 4.78149 16.1861 3.59082C14.6871 2.35314 12.581 1.55414 10.221 1.48521L10.2307 1.47267Z" fill="#0047B3"/>
</g>
<defs>
<clipPath id="clip0_12_87">
<rect width="20" height="17" fill="white"/>
</clipPath>
</defs>
</svg>
