<svg width="17" height="15" viewBox="0 0 17 15" fill="none" xmlns="http://www.w3.org/2000/svg">
<path fill-rule="evenodd" clip-rule="evenodd" d="M0.553527 6.19495H4.47941C4.62622 6.19495 4.76701 6.25515 4.87082 6.3623C4.97462 6.46946 5.03294 6.61479 5.03294 6.76633V14.4286C5.03294 14.5802 4.97462 14.7255 4.87082 14.8326C4.76701 14.9398 4.62622 15 4.47941 15H0.553527C0.406722 15 0.265931 14.9398 0.162124 14.8326C0.0583178 14.7255 0 14.5802 0 14.4286V6.77062C0 6.61908 0.0583178 6.47374 0.162124 6.36659C0.265931 6.25943 0.406722 6.19923 0.553527 6.19923V6.19495ZM8.6018 0.901056C8.62385 0.728992 8.68682 0.565239 8.7851 0.424411C8.88337 0.283582 9.0139 0.17006 9.16502 0.0939738C9.40847 -0.0137001 9.68088 -0.0293789 9.93442 0.0496914C10.201 0.128126 10.4502 0.259633 10.6678 0.436805C11.0614 0.764117 11.3844 1.17272 11.616 1.63642C11.8476 2.10012 11.9828 2.60867 12.0129 3.12946C12.0354 3.52694 12.0299 3.92558 11.9963 4.32223C11.9732 4.60221 11.9382 4.89504 11.8911 5.20073H14.6864C15.1248 5.21488 15.5547 5.32852 15.9457 5.53357C16.2582 5.69521 16.5251 5.93726 16.7207 6.23637C16.9205 6.55473 17.0175 6.93033 16.9974 7.30915C16.9782 7.65315 16.8926 7.98972 16.7456 8.29907C16.8453 8.68933 16.8707 9.09588 16.8203 9.49613C16.7835 9.80335 16.648 10.089 16.4356 10.3075C16.4546 10.7651 16.3888 11.2223 16.2419 11.6545C16.1052 12.0296 15.893 12.3704 15.6191 12.6545C15.5984 12.8959 15.5567 13.1349 15.4946 13.3687C15.4249 13.6452 15.3092 13.9072 15.1528 14.1429C14.6781 14.8343 14.299 14.8186 13.6984 14.7929C13.614 14.7929 13.524 14.7929 13.3857 14.7929H7.94172C7.51921 14.8107 7.09873 14.7235 6.71566 14.5386C6.33475 14.3275 6.00391 14.0319 5.74699 13.673L5.67365 13.4287V6.87918L5.95041 6.80347C6.65339 6.60777 7.20553 5.98782 7.63313 5.24645C8.0466 4.49678 8.37179 3.6988 8.6018 2.86948V0.975336L8.61011 0.901056H8.6018ZM9.47638 0.789636C9.4385 0.813926 9.40641 0.846691 9.38245 0.88551C9.3585 0.924329 9.34331 0.968208 9.33799 1.0139V2.92376L9.32139 3.03375C9.07301 3.94277 8.71943 4.81758 8.2683 5.63927C7.80472 6.44207 7.19585 7.13059 6.41676 7.44914V13.2958C6.58704 13.5262 6.80194 13.7174 7.04778 13.8572C7.32847 13.9865 7.63473 14.0457 7.94172 14.0301H13.3857C13.4825 14.0301 13.6085 14.0301 13.7275 14.0415C14.0831 14.0558 14.3087 14.0658 14.5494 13.7144C14.6567 13.5512 14.7367 13.3706 14.7861 13.1801C14.846 12.9465 14.8826 12.7072 14.8954 12.4659L15.0103 12.2131C15.2504 11.987 15.4353 11.7056 15.5499 11.3917C15.6789 10.9933 15.726 10.5715 15.6883 10.1532L15.6745 9.92467L15.8627 9.80467C15.9282 9.75438 15.9824 9.69003 16.0216 9.61606C16.0608 9.54209 16.084 9.46024 16.0896 9.37613C16.1267 9.03404 16.0946 8.68774 15.9955 8.35907L16.0246 8.08195C16.1602 7.83839 16.2411 7.56647 16.2612 7.28629C16.2731 7.06527 16.2163 6.84612 16.0993 6.66062C15.9729 6.47111 15.802 6.31777 15.6025 6.21494C15.3125 6.06273 14.9936 5.97836 14.6685 5.96782H11.0027L11.0858 5.51357C11.1629 5.09831 11.2193 4.67921 11.2546 4.25795C11.2864 3.8994 11.2924 3.53892 11.2726 3.17946C11.2514 2.76612 11.1466 2.36193 10.965 1.9929C10.7834 1.62387 10.529 1.29817 10.2181 1.03676C10.0781 0.921223 9.91788 0.834429 9.74622 0.781065C9.65668 0.748387 9.559 0.748387 9.46946 0.781065L9.47638 0.789636ZM3.13296 12.1859C3.27337 12.1859 3.41062 12.2289 3.52736 12.3094C3.6441 12.3899 3.73509 12.5044 3.78882 12.6383C3.84255 12.7722 3.85661 12.9195 3.82922 13.0617C3.80183 13.2038 3.73422 13.3344 3.63493 13.4369C3.53565 13.5394 3.40916 13.6092 3.27145 13.6374C3.13375 13.6657 2.99101 13.6512 2.86129 13.5957C2.73158 13.5403 2.62071 13.4464 2.5427 13.3259C2.4647 13.2053 2.42306 13.0637 2.42306 12.9187C2.42306 12.7244 2.49786 12.538 2.63099 12.4006C2.76412 12.2631 2.94468 12.1859 3.13296 12.1859Z" fill="#FF0000"/>
</svg>
