<svg width="50" height="50" viewBox="0 0 50 50" fill="none" xmlns="http://www.w3.org/2000/svg">
<path d="M25.0065 1.04487e-05C29.9537 0.00910939 34.7875 1.48225 38.8989 4.23382C43.0104 6.9854 46.2154 10.8923 48.1103 15.4622L48.1388 15.5355C50.3246 20.879 50.5933 26.8143 48.8993 32.3335C47.2053 37.8526 43.6531 42.6152 38.8459 45.8123C34.0387 49.0094 28.273 50.444 22.5281 49.8722C16.7833 49.3004 11.4134 46.7577 7.33068 42.6758C5.00657 40.3535 3.16218 37.5966 1.90262 34.5622L1.87414 34.4849C-8.63414e-05 29.9248 -0.482052 24.9118 0.489022 20.0782C1.4601 15.2445 3.84072 10.8067 7.33068 7.32423C9.65293 5.00012 12.4098 3.15573 15.4443 1.89617L15.5175 1.86769C18.5282 0.631533 21.7519 -0.00296961 25.0065 1.04487e-05ZM20.1643 32.2754C19.2936 31.5308 18.4554 30.6926 18.317 29.1626H18.2031C17.9365 29.163 17.6743 29.0943 17.4422 28.9632C17.0618 28.7246 16.7691 28.3691 16.608 27.95C16.2215 27.063 15.9163 24.7315 16.8847 24.0641L16.6894 23.9461V23.6857C16.6487 23.2178 16.6406 22.6481 16.6324 22.0581C16.5958 19.8649 16.5511 17.2119 14.7892 16.6789L14.0364 16.451L14.5328 15.8366C15.8335 14.1865 17.3128 12.6854 18.9436 11.3607C20.6404 10.0261 22.3657 9.13494 24.0543 8.87859C24.9326 8.73572 25.8314 8.78544 26.6886 9.02432C27.5457 9.2632 28.3407 9.68552 29.0185 10.2621C29.5058 10.661 29.9516 11.1082 30.3491 11.5967C31.1384 11.6842 31.9006 11.9366 32.5861 12.3376C33.2717 12.7385 33.8653 13.2791 34.3286 13.9242C34.9144 14.7094 35.3529 15.5946 35.6225 16.5365C35.9015 17.4979 36.0197 18.4988 35.9724 19.4987C35.9165 21.3044 35.1778 23.0217 33.9054 24.3042C34.1293 24.3089 34.3491 24.3646 34.5483 24.467C35.2848 24.8739 35.3092 25.7162 35.1139 26.4323C34.9226 27.0304 34.6826 27.7222 34.4506 28.304C34.1861 29.0934 33.7792 29.2399 32.9654 29.1545C32.9329 30.8553 31.8261 31.6691 30.7397 32.6091L30.7722 32.6579C31.1922 33.3125 31.6702 33.9281 32.2005 34.4971C32.219 34.514 32.2354 34.5331 32.2493 34.554C34.768 36.3363 40.2083 36.7676 42.5602 38.0778L42.6538 38.1348C45.0868 34.8607 46.5621 30.9749 46.9149 26.911C47.2678 22.8472 46.4843 18.7653 44.6521 15.1208C42.8198 11.4764 40.0107 8.41286 36.5384 6.27217C33.0661 4.13148 29.0673 2.99787 24.9881 2.99787C20.909 2.99787 16.9102 4.13148 13.4379 6.27217C9.9656 8.41286 7.15655 11.4764 5.32425 15.1208C3.49196 18.7653 2.70852 22.8472 3.06138 26.911C3.41424 30.9749 4.88951 34.8607 7.32254 38.1348L7.41613 38.0778C9.77209 36.7676 16.5795 36.3363 19.1308 34.5866C19.3546 34.2271 19.5492 33.8502 19.7127 33.4595C19.8795 33.0526 20.0423 32.6457 20.1806 32.2957L20.1643 32.2754Z" fill="#212121"/>
</svg>
