<svg width="25" height="15" viewBox="0 0 25 15" fill="none" xmlns="http://www.w3.org/2000/svg">
<g clip-path="url(#clip0_12_89)">
<path fill-rule="evenodd" clip-rule="evenodd" d="M12.5002 3.03828C13.4561 3.03458 14.3837 3.38944 15.1249 4.0424C15.866 4.69535 16.3749 5.606 16.5647 6.61918C16.7546 7.63236 16.6137 8.68538 16.1661 9.59882C15.7184 10.5123 14.9918 11.2296 14.1099 11.6286C13.228 12.0276 12.2454 12.0836 11.3296 11.7871C10.4138 11.4906 9.62143 10.8598 9.08748 10.0023C8.55353 9.14482 8.31104 8.11366 8.40134 7.08451C8.49164 6.05536 8.90913 5.09191 9.58269 4.35832C9.96455 3.94123 10.4189 3.60989 10.9196 3.38335C11.4203 3.15681 11.9574 3.03954 12.5002 3.03828ZM0.213795 6.88838C0.860895 6.03824 1.5625 5.23838 2.3134 4.49472C5.23699 1.61704 8.56137 0.079201 12.0038 -1.13668e-06C15.4461 -0.0792033 18.9394 1.30243 22.2475 4.25051C23.1548 5.06387 24.0074 5.94613 24.7988 6.89058C24.9217 7.04032 24.9938 7.23093 25.003 7.43093C25.0122 7.63093 24.9581 7.82836 24.8496 7.99061C23.9693 9.3476 22.9158 10.5631 21.7205 11.6009C19.2238 13.7827 16.1151 14.9814 12.905 15C9.67183 14.9909 6.52261 13.886 3.90032 11.8407C2.4975 10.7632 1.24326 9.47581 0.175139 8.01701C0.055789 7.85494 -0.00593122 7.652 0.00115996 7.44496C0.00825115 7.23791 0.0836847 7.04047 0.213795 6.88838ZM3.39373 5.78835C2.85101 6.32161 2.33552 6.88639 1.84954 7.4802C2.72577 8.58883 3.72475 9.57673 4.82398 10.4217C7.1749 12.2585 9.99863 13.2532 12.8989 13.2664C15.7449 13.2474 18.5004 12.183 20.7135 10.2479C21.6258 9.45632 22.4456 8.54761 23.1549 7.5418C22.5465 6.85161 21.9012 6.20073 21.2221 5.59255C18.2212 2.91728 15.0718 1.66764 12.0261 1.73585C8.98048 1.80405 6.02841 3.18568 3.39373 5.77955V5.78835ZM11.4687 4.07451C11.7854 4.07451 12.0949 4.17606 12.3582 4.36631C12.6215 4.55656 12.8268 4.82698 12.948 5.14336C13.0691 5.45974 13.1008 5.80788 13.0391 6.14374C12.9773 6.47961 12.8248 6.78813 12.6009 7.03027C12.3769 7.27242 12.0916 7.43732 11.781 7.50413C11.4705 7.57094 11.1485 7.53665 10.8559 7.4056C10.5634 7.27455 10.3133 7.05263 10.1374 6.76789C9.96143 6.48316 9.86752 6.1484 9.86752 5.80595C9.86725 5.5785 9.90849 5.35322 9.98886 5.14302C10.0692 4.93282 10.1872 4.74183 10.3359 4.58099C10.4846 4.42015 10.6612 4.29263 10.8556 4.20572C11.05 4.11881 11.2583 4.07422 11.4687 4.07451Z" fill="#676767"/>
</g>
<defs>
<clipPath id="clip0_12_89">
<rect width="25" height="15" fill="white"/>
</clipPath>
</defs>
</svg>
